<?xml version="1.0" encoding="UTF-8" standalone="no"?>
<!-- Created with Inkscape (http://www.inkscape.org/) -->

<svg
   xml:space="preserve"
   inkscape:export-ydpi="192.144"
   inkscape:export-xdpi="192.144"
   inkscape:export-filename="../../../../Desktop/PF.pdf"
   sodipodi:docname="0000.svg"
   inkscape:version="1.2.1 (9c6d41e, 2022-07-14)"
   id="svg5"
   version="1.1"
   viewBox="0 0 100.00002 20.627142"
   height="20.627142mm"
   width="100.00002mm"
   xmlns:inkscape="http://www.inkscape.org/namespaces/inkscape"
   xmlns:sodipodi="http://sodipodi.sourceforge.net/DTD/sodipodi-0.dtd"
   xmlns="http://www.w3.org/2000/svg"
   xmlns:svg="http://www.w3.org/2000/svg"><sodipodi:namedview
     id="namedview7"
     pagecolor="#ffffff"
     bordercolor="#666666"
     borderopacity="1.0"
     inkscape:showpageshadow="false"
     inkscape:pageopacity="0.0"
     inkscape:pagecheckerboard="0"
     inkscape:deskcolor="#d1d1d1"
     inkscape:document-units="mm"
     showgrid="false"
     inkscape:zoom="0.56205775"
     inkscape:cx="445.68374"
     inkscape:cy="422.55444"
     inkscape:window-width="1512"
     inkscape:window-height="916"
     inkscape:window-x="0"
     inkscape:window-y="38"
     inkscape:window-maximized="1"
     inkscape:current-layer="layer3"><inkscape:grid
       type="xygrid"
       id="grid868"
       originx="-409.8537"
       originy="144.06953"
       spacingy="1"
       spacingx="1"
       units="mm"
       visible="false" /><inkscape:page
       x="-1.680716e-05"
       y="-7.6248425e-06"
       width="100.00002"
       height="20.627142"
       id="page1"
       margin="0"
       bleed="0" /></sodipodi:namedview><defs
     id="defs2"><linearGradient
       id="linearGradient3854-37"
       inkscape:swatch="solid"><stop
         style="stop-color:#000000;stop-opacity:1;"
         offset="0"
         id="stop3856-88" /></linearGradient></defs><g
     inkscape:label="Layer 1"
     inkscape:groupmode="layer"
     id="layer1"
     transform="translate(-409.85368,144.06953)"><path
       id="path88015-7"
       style="fill:#000000;stroke:none;stroke-width:0.0812663;stroke-miterlimit:10"
       d="m 433.75194,-144.06954 -7.32874,20.61165 h 5.82082 l 1.26401,-4.66742 h 7.1365 l 1.23404,4.66742 h 8.59895 l -0.43615,-14.10972 4.5961,14.10972 h 4.40903 l 4.6116,-14.14073 -0.43615,14.14073 h 5.8508 l -0.17777,-7.72046 h 2.56522 c 0,0 2.35991,-0.002 3.44888,3.36207 l 1.4273,4.37389 h 14.84042 c 0,0 1.80482,-0.60012 3.00757,-2.06292 0,0 1.23277,1.51032 3.11815,2.06292 h 8.30956 c 0,0 4.2416,-1.34725 4.2416,-6.12572 0,0 -0.002,-5.05902 -6.16189,-6.35929 l -2.51871,-0.53331 c 0,0 -2.6975,-0.56987 -2.6975,-2.01641 0,0 -10e-4,-2.00091 2.713,-2.00091 0,0 3.05718,0.004 3.05718,2.31097 l 5.29786,-0.56947 c 0,0 -0.39231,-4.06599 -4.52065,-5.3175 h -7.35975 c 0,0 -2.22848,0.71686 -3.545,2.651 0,0 -1.28315,-1.93584 -3.50986,-2.651 h -7.36492 c 0,0 -2.25506,0.7006 -3.55533,2.651 0,0 -1.67605,-2.50472 -4.68292,-2.651 h -13.43895 l -4.63228,14.25751 -4.71392,-14.25751 h -6.61767 l 0.1974,15.40989 -5.49527,-15.4254 z m -23.89826,10e-4 7.26467,20.60958 h 1.02422 5.55831 1.02423 l 7.24916,-20.60964 h -1.02423 -4.84311 -1.02422 l -4.16098,14.62855 -4.17649,-14.62855 h -1.02422 -4.84415 z m 76.90479,3.57503 c 3.05562,0 3.05201,2.31097 3.05201,2.31097 l 3.46438,-0.37517 c 0,4.98973 5.02295,6.16086 5.02295,6.16086 l 3.1998,0.7462 c 3.05561,0.71516 3.05821,2.35645 3.05821,2.35645 0,2.24295 -3.07268,2.24482 -3.07268,2.24482 -3.59198,0 -3.59151,-3.02617 -3.59151,-3.02617 l -2.47323,0.24288 c 0,0 -0.001,-4.77818 -6.16086,-6.09471 l -2.51974,-0.5333 c 0,0 -2.69647,-0.56988 -2.69647,-2.01642 0,-0.0324 0.003,-2.01641 2.71714,-2.01641 z m -17.83352,0.60461 h 4.18062 c 0,0 2.11253,-0.004 2.11253,1.99575 v 0.22841 c 0,0 2.8e-4,2.22518 -2.35644,2.22518 h -3.93671 z m -31.88639,0.061 2.38745,7.51168 h -4.71392 z m 42.61441,4.5713 c 0,1.86913 4.30671,2.87423 4.30671,2.87423 l 3.10368,0.73174 c 3.05562,0.71516 3.05718,2.35645 3.05718,2.35645 0,2.24295 -3.05718,2.24482 -3.05718,2.24482 -3.60823,0 -3.60598,-3.02721 -3.60598,-3.02721 l -3.99768,0.37621 c -1.36528,-3.08812 -2.92592,-3.36207 -2.92592,-3.36207 2.01541,-0.43883 3.11919,-2.19417 3.11919,-2.19417 z" /></g></svg>
