<?xml version="1.0" encoding="UTF-8" standalone="no"?>
<!-- Created with Inkscape (http://www.inkscape.org/) -->

<svg
   width="52mm"
   height="13.000014mm"
   viewBox="0 0 51.999999 13.000014"
   version="1.1"
   id="svg5"
   xml:space="preserve"
   xmlns="http://www.w3.org/2000/svg"
   xmlns:svg="http://www.w3.org/2000/svg"><defs
     id="defs2" /><g
     id="layer1"
     transform="translate(-0.68431342,-300.47769)"><g
       id="g5"><path
         id="rect4"
         style="fill:none;stroke-width:0.25;stroke-linecap:round;stroke-linejoin:round"
         d="M 0.68431339,300.4777 H 52.684313 v 13 H 0.68431339 Z" /><path
         id="path2448-3"
         style="font-size:1.76389px;line-height:1.25;font-family:'Courier New';-inkscape-font-specification:'Courier New';fill:#000000;stroke-width:0.338059"
         d="m 26.924611,300.97784 v 5.2e-4 a 9.3523765,3.3401351 0 0 0 -9.351368,3.33985 9.3523765,3.3401351 0 0 0 9.351368,3.34036 9.3523765,3.3401351 0 0 0 0.0894,-5.1e-4 v -0.0424 a 8.0163227,3.3401351 0 0 1 -6.769097,-3.29747 8.0163227,3.3401351 0 0 1 6.769097,-3.29748 v -0.0424 a 9.3523765,3.3401351 0 0 0 -0.0894,-5.1e-4 z m -0.480591,0.986 a 9.3523765,3.3401351 0 0 0 -0.08837,5.1e-4 v 0.0424 a 8.0163227,3.3401351 0 0 1 6.768063,3.29747 8.0163227,3.3401351 0 0 1 -6.769096,3.29748 v 0.0419 a 9.3523765,3.3401351 0 0 0 0.0894,0.001 9.3523765,3.3401351 0 0 0 9.351367,-3.34037 9.3523765,3.3401351 0 0 0 -9.351367,-3.34036 z m -5.037936,1.40973 v 1.88981 h 0.519348 c 0.122132,0 0.22372,-0.0327 0.305408,-0.0977 0.08254,-0.0659 0.124023,-0.15771 0.124023,-0.27543 v -1.1436 c 0,-0.12645 -0.04392,-0.21994 -0.131775,-0.28061 -0.08785,-0.0615 -0.187793,-0.0925 -0.30024,-0.0925 z m 1.796272,0.12403 c -0.318012,0 -0.476973,0.12232 -0.476973,0.36742 v 1.21645 c 0,0.22666 0.158132,0.33952 0.47439,0.33952 0.140556,0 0.254095,-0.029 0.341064,-0.0878 0.08785,-0.0597 0.131775,-0.14497 0.131775,-0.25476 v -1.21595 c 0,-0.24334 -0.156639,-0.36483 -0.470256,-0.36483 z m -1.381311,0.11989 c 0.07726,0 0.116272,0.0328 0.116272,0.0987 v 1.20458 c 0,0.0668 -0.03901,0.10025 -0.116272,0.10025 z m 2.701645,0.0207 c -0.319768,0 -0.479558,0.12232 -0.479558,0.36741 v 1.21646 c 0,0.22665 0.15979,0.34003 0.479558,0.34003 0.110692,0 0.20981,-0.027 0.297657,-0.0806 0.08785,-0.0545 0.131774,-0.1264 0.131774,-0.216 v -0.47956 H 24.57385 v 0.46664 c 0,0.0307 -0.01859,0.046 -0.05633,0.046 -0.03953,0 -0.05943,-0.0153 -0.05943,-0.046 v -1.31103 c 0,-0.0307 0.0199,-0.0465 0.05943,-0.0465 0.03773,0 0.05633,0.0158 0.05633,0.0465 v 0.37413 h 0.378271 v -0.34261 c 0,-0.22313 -0.143046,-0.33486 -0.429431,-0.33486 z m -1.322917,0.11885 c 0.04481,0 0.06718,0.0191 0.06718,0.0568 v 1.28726 c 0,0.0377 -0.02237,0.0563 -0.06718,0.0563 -0.04651,0 -0.06976,-0.0186 -0.06976,-0.0563 v -1.28726 c 0,-0.0377 0.02326,-0.0568 0.06976,-0.0568 z m 2.122868,0.0305 v 1.56683 c 0,0.11946 0.0479,0.20582 0.143661,0.25941 0.09663,0.0536 0.210168,0.0806 0.341064,0.0806 0.141434,0 0.257304,-0.0302 0.347783,-0.0899 0.0905,-0.0597 0.135909,-0.14375 0.135909,-0.25268 v -1.56425 h -0.414962 v 1.58647 c 0,0.0377 -0.02307,0.0568 -0.06873,0.0568 -0.04651,0 -0.06976,-0.0191 -0.06976,-0.0568 v -1.58647 z m 1.33842,0.14935 v 1.8898 h 0.324528 v -1.06091 l 0.24753,1.06091 h 0.285771 l 0.216524,-1.06091 v 1.06091 h 0.370003 v -1.8898 h -0.556038 l -0.164848,0.9803 -0.189652,-0.9803 z m 1.814876,0.14107 v 1.88929 h 0.811837 v -0.24236 h -0.396875 v -0.66404 h 0.35295 v -0.22945 h -0.35295 v -0.51004 h 0.391191 v -0.2434 z m 1.18184,0.14056 v 1.88981 h 0.346749 v -1.00717 l 0.282154,1.00717 h 0.426847 v -1.88981 h -0.346749 v 0.86197 l -0.237195,-0.86197 z m 1.425753,0.14108 v 0.24598 h 0.232027 v 1.64331 h 0.414962 v -1.64331 h 0.232027 v -0.24598 z m -11.33936,2.76469 c -0.14893,0 -0.280576,0.0635 -0.394291,0.18965 -0.112975,0.12619 -0.168982,0.28849 -0.168982,0.4873 0,0.19808 0.05601,0.36041 0.168982,0.48731 0.113715,0.12618 0.245361,0.18965 0.394291,0.18965 0.100504,0 0.194335,-0.0297 0.281636,-0.0884 0.08801,-0.0587 0.156793,-0.14055 0.206706,-0.24546 0.04991,-0.10565 0.07493,-0.21988 0.07493,-0.34312 0,-0.12399 -0.02537,-0.23875 -0.07597,-0.34366 -0.04988,-0.10494 -0.118362,-0.18628 -0.205672,-0.24495 -0.0873,-0.0587 -0.181132,-0.0884 -0.281636,-0.0884 z m 0,0.0925 c 0.138656,0 0.251696,0.0597 0.338997,0.17932 0.0873,0.11958 0.130741,0.25475 0.130741,0.40514 0,0.15113 -0.04344,0.28659 -0.130741,0.40618 -0.0873,0.11884 -0.200341,0.17828 -0.338997,0.17828 -0.12105,0 -0.230271,-0.0542 -0.327112,-0.16278 -0.09611,-0.10931 -0.144177,-0.25001 -0.144177,-0.42168 0,-0.1614 0.04627,-0.29918 0.137976,-0.4129 0.09244,-0.11444 0.203455,-0.17156 0.333313,-0.17156 z m 0.878499,0.37619 c -0.02198,0 -0.038,0.004 -0.04754,0.0129 -0.0095,0.008 -0.01447,0.0191 -0.01447,0.0331 0,0.0139 0.0049,0.0253 0.01447,0.0341 0.0095,0.009 0.02556,0.0129 0.04754,0.0129 h 0.124023 v 1.10277 h -0.124023 c -0.02198,0 -0.038,0.004 -0.04754,0.0129 -0.0095,0.008 -0.01447,0.0191 -0.01447,0.0331 0,0.0132 0.0049,0.0243 0.01447,0.0331 0.0095,0.009 0.02556,0.0134 0.04754,0.0134 h 0.387056 c 0.02274,0 0.03904,-0.005 0.04858,-0.0134 0.0095,-0.009 0.01447,-0.0199 0.01447,-0.0331 0,-0.0135 -0.0049,-0.0245 -0.01447,-0.0331 -0.0095,-0.009 -0.02584,-0.0129 -0.04858,-0.0129 h -0.170532 v -0.48214 l 0.293522,-5.2e-4 c 0.08144,0.0389 0.153655,0.0931 0.216008,0.16278 0.06309,0.0697 0.151685,0.20666 0.266133,0.41134 h 0.123507 c 0.02198,0 0.03749,-0.004 0.04703,-0.0129 0.0095,-0.009 0.01447,-0.0199 0.01447,-0.0331 0,-0.0143 -0.0049,-0.0254 -0.01447,-0.0331 -0.0095,-0.009 -0.02505,-0.0134 -0.04703,-0.0134 h -0.07028 c -0.103461,-0.17748 -0.178893,-0.29465 -0.225826,-0.35191 -0.04696,-0.0573 -0.103485,-0.10853 -0.169499,-0.154 0.114485,-0.0389 0.19605,-0.0873 0.24443,-0.14521 0.04915,-0.0587 0.0739,-0.12107 0.0739,-0.18707 0,-0.0917 -0.03964,-0.17384 -0.118856,-0.24651 -0.0785,-0.0733 -0.175757,-0.11007 -0.290938,-0.11007 z m 0.216524,0.093 h 0.340031 c 0.08872,0 0.164153,0.0279 0.225826,0.0837 0.06235,0.0557 0.09353,0.11403 0.09353,0.1757 0,0.0411 -0.01541,0.0818 -0.04547,0.12144 -0.02935,0.0397 -0.07661,0.0741 -0.142627,0.10335 -0.06532,0.0294 -0.138442,0.0439 -0.219108,0.0439 h -0.252181 z m 1.275375,0.22428 c -0.02198,0 -0.03749,0.005 -0.04703,0.0134 -0.0095,0.008 -0.01447,0.0191 -0.01447,0.0331 0,0.0139 0.0049,0.0253 0.01447,0.0341 0.0095,0.009 0.02505,0.0129 0.04703,0.0129 h 0.07803 v 1.10226 l -0.07803,-5.2e-4 c -0.02198,0 -0.03749,0.004 -0.04703,0.0129 -0.0095,0.008 -0.01447,0.0191 -0.01447,0.0331 0,0.0132 0.0049,0.0243 0.01447,0.0331 0.0096,0.009 0.02505,0.0134 0.04703,0.0134 h 0.497644 c 0.09535,0 0.179522,-0.0245 0.252181,-0.0729 0.09757,-0.066 0.166952,-0.14326 0.208772,-0.23204 0.04183,-0.0888 0.06305,-0.18027 0.06305,-0.27492 v -0.12763 c 0,-0.077 -0.01075,-0.14403 -0.03204,-0.2005 -0.03011,-0.0778 -0.07437,-0.1515 -0.132291,-0.22118 -0.03374,-0.0411 -0.08271,-0.0778 -0.147278,-0.11007 -0.06383,-0.0323 -0.134621,-0.0486 -0.21239,-0.0486 z m 0.171049,0.093 h 0.33538 c 0.05942,0 0.115031,0.0136 0.166398,0.0408 0.05136,0.0264 0.08986,0.0561 0.116272,0.0884 0.04838,0.0586 0.08625,0.1207 0.112654,0.18603 0.01831,0.0447 0.02739,0.0957 0.02739,0.15296 v 0.16692 c 0,0.069 -0.01718,0.13919 -0.05168,0.21032 -0.03374,0.0704 -0.08473,0.13079 -0.152962,0.18139 -0.0675,0.0506 -0.140305,0.076 -0.218074,0.076 H 22.2851 Z m 1.165303,0.17209 c -0.02198,0 -0.038,0.004 -0.04754,0.0129 -0.0095,0.008 -0.01395,0.0191 -0.01395,0.0331 0,0.0139 0.0044,0.0253 0.01395,0.0341 0.0095,0.009 0.02556,0.0129 0.04754,0.0129 h 0.12454 v 1.10278 h -0.12454 c -0.02198,0 -0.038,0.004 -0.04754,0.0129 -0.0095,0.008 -0.01395,0.0191 -0.01395,0.0331 0,0.0132 0.0044,0.0243 0.01395,0.0331 0.0095,0.009 0.02556,0.0134 0.04754,0.0134 h 1.020094 v -0.36535 c 0,-0.022 -0.0041,-0.038 -0.01292,-0.0475 -0.008,-0.01 -0.01911,-0.0145 -0.03307,-0.0145 -0.01397,0 -0.02533,0.005 -0.03411,0.0145 -0.0077,0.01 -0.01137,0.0255 -0.01137,0.0475 v 0.27285 h -0.711066 v -0.52968 l 0.331246,-5.2e-4 v 0.1049 c 0,0.022 0.0041,0.0375 0.01292,0.047 0.0088,0.01 0.02014,0.0145 0.03411,0.0145 0.01321,0 0.0243,-0.005 0.03307,-0.0145 0.0088,-0.01 0.01344,-0.025 0.01344,-0.047 v -0.30179 c 0,-0.022 -0.0047,-0.0375 -0.01344,-0.047 -0.0088,-0.01 -0.01987,-0.0145 -0.03307,-0.0145 -0.01397,0 -0.02533,0.005 -0.03411,0.0145 -0.0088,0.01 -0.01292,0.025 -0.01292,0.047 v 0.10439 h -0.331246 v -0.48059 h 0.662492 v 0.22531 c 0,0.022 0.0037,0.038 0.01137,0.0475 0.0088,0.01 0.02013,0.0139 0.03411,0.0139 0.01431,0 0.02541,-0.004 0.03307,-0.0139 0.0088,-0.01 0.01292,-0.0255 0.01292,-0.0475 v -0.31781 z m 1.334803,0.0739 c -0.02197,0 -0.03749,0.004 -0.04702,0.0129 -0.0095,0.008 -0.01447,0.0191 -0.01447,0.0331 0,0.0139 0.0049,0.0253 0.01447,0.0341 0.0095,0.009 0.02505,0.0129 0.04702,0.0129 h 0.124541 v 1.10278 h -0.124541 c -0.02197,0 -0.03749,0.004 -0.04702,0.0129 -0.0095,0.008 -0.01447,0.0191 -0.01447,0.0331 0,0.0132 0.0049,0.0243 0.01447,0.0331 0.0095,0.009 0.02505,0.0129 0.04702,0.0129 h 0.387574 c 0.02274,0 0.03904,-0.004 0.04858,-0.0129 0.0095,-0.009 0.01395,-0.0199 0.01395,-0.0331 0,-0.0135 -0.0044,-0.0245 -0.01395,-0.0331 -0.0095,-0.009 -0.02584,-0.0129 -0.04858,-0.0129 h -0.170533 v -0.48214 l 0.293522,-0.001 c 0.08144,0.0389 0.153655,0.0936 0.216008,0.1633 0.06309,0.0697 0.151685,0.20666 0.266134,0.41134 h 0.123506 c 0.02197,0 0.03749,-0.005 0.04703,-0.0134 0.0095,-0.009 0.01447,-0.0194 0.01447,-0.0326 0,-0.0135 -0.0049,-0.0245 -0.01447,-0.0331 -0.0095,-0.009 -0.02505,-0.0134 -0.04703,-0.0134 h -0.0708 c -0.103462,-0.17749 -0.178376,-0.29465 -0.22531,-0.35191 -0.04697,-0.0572 -0.103485,-0.10853 -0.169498,-0.154 0.114493,-0.0389 0.196049,-0.0878 0.244429,-0.14573 0.04915,-0.0587 0.07338,-0.12107 0.07338,-0.18707 0,-0.0917 -0.03964,-0.17383 -0.118856,-0.24649 -0.0785,-0.0733 -0.17524,-0.10956 -0.290422,-0.10956 z m 8.172111,0.0899 c -0.02197,0 -0.038,0.005 -0.04754,0.0134 -0.0095,0.008 -0.01395,0.0186 -0.01395,0.0326 0,0.0139 0.0044,0.0253 0.01395,0.0341 0.0095,0.009 0.02557,0.0129 0.04754,0.0129 h 0.05839 v 1.10277 h -0.07855 c -0.02198,0 -0.03749,0.004 -0.04703,0.0129 -0.0095,0.008 -0.01447,0.0192 -0.01447,0.0331 0,0.0132 0.0049,0.0242 0.01447,0.0331 0.0095,0.009 0.02505,0.0134 0.04703,0.0134 h 0.341581 c 0.02197,0 0.03749,-0.005 0.04703,-0.0134 0.0095,-0.009 0.01447,-0.0199 0.01447,-0.0331 0,-0.0135 -0.0049,-0.0245 -0.01447,-0.0331 -0.0095,-0.009 -0.02505,-0.0129 -0.04703,-0.0129 h -0.170532 v -1.10277 h 0.01757 l 0.355018,0.80873 h 0.105936 l 0.348816,-0.80873 h 0.01964 v 1.10277 h -0.170529 c -0.02274,0 -0.03852,0.004 -0.04806,0.0129 -0.0095,0.008 -0.01447,0.0192 -0.01447,0.0331 0,0.0132 0.0049,0.0242 0.01447,0.0331 0.0103,0.009 0.02608,0.0134 0.04806,0.0134 h 0.340031 c 0.02274,0 0.03904,-0.005 0.04858,-0.0134 0.0095,-0.009 0.01447,-0.0199 0.01447,-0.0331 0,-0.0135 -0.0049,-0.0245 -0.01447,-0.0331 -0.0095,-0.009 -0.02584,-0.0129 -0.04858,-0.0129 h -0.077 v -1.10277 h 0.05736 c 0.02275,0 0.03904,-0.004 0.04858,-0.0129 0.0095,-0.009 0.01395,-0.0201 0.01395,-0.0341 0,-0.0135 -0.0044,-0.024 -0.01395,-0.0326 -0.0095,-0.009 -0.02584,-0.0134 -0.04858,-0.0134 h -0.22686 l -0.344165,0.79685 -0.350366,-0.79685 z m -7.95507,0.003 h 0.340031 c 0.08872,0 0.163636,0.0279 0.22531,0.0837 0.06235,0.0558 0.09353,0.1141 0.09353,0.1757 0,0.0411 -0.01489,0.0813 -0.04496,0.12092 -0.02935,0.0396 -0.07713,0.0745 -0.143143,0.10387 -0.06533,0.0293 -0.137926,0.0439 -0.218592,0.0439 h -0.252176 z m 6.600114,0.38602 c -0.02198,0 -0.03749,0.005 -0.04703,0.0134 -0.0095,0.008 -0.01447,0.0191 -0.01447,0.0331 0,0.0139 0.0049,0.0253 0.01447,0.0341 0.0095,0.009 0.02505,0.0124 0.04703,0.0124 h 0.12454 v 1.10278 h -0.12454 c -0.02198,0 -0.03749,0.005 -0.04703,0.0134 -0.0095,0.008 -0.01447,0.0191 -0.01447,0.0331 0,0.0132 0.0049,0.0237 0.01447,0.0325 0.0095,0.009 0.02505,0.0134 0.04703,0.0134 h 1.020093 V 309.651 c 0,-0.022 -0.0041,-0.038 -0.01292,-0.0476 -0.008,-0.01 -0.01911,-0.014 -0.03307,-0.014 -0.01397,0 -0.02533,0.004 -0.03411,0.014 -0.0077,0.01 -0.01137,0.0256 -0.01137,0.0476 v 0.27285 h -0.711068 v -0.52917 l 0.331246,-5.2e-4 v 0.10439 c 0,0.022 0.0041,0.038 0.01292,0.0475 0.0088,0.01 0.02013,0.014 0.03411,0.014 0.0132,0 0.0243,-0.004 0.03307,-0.014 0.0088,-0.01 0.01344,-0.0255 0.01344,-0.0475 v -0.30179 c 0,-0.022 -0.0047,-0.0375 -0.01344,-0.047 -0.0088,-0.01 -0.01987,-0.0145 -0.03307,-0.0145 -0.01397,0 -0.02533,0.005 -0.03411,0.0145 -0.0088,0.01 -0.01292,0.025 -0.01292,0.047 v 0.1049 h -0.331246 v -0.4811 h 0.662492 v 0.22582 c 0,0.022 0.0037,0.0375 0.01137,0.047 0.0088,0.01 0.02014,0.0145 0.03411,0.0145 0.01431,0 0.02541,-0.005 0.03307,-0.0145 0.0088,-0.01 0.01292,-0.025 0.01292,-0.047 v -0.31833 z m -1.350305,0.26562 v 0.41238 c 0,0.0227 0.0041,0.039 0.01292,0.0486 0.0088,0.01 0.01987,0.0145 0.03307,0.0145 0.01431,0 0.02541,-0.005 0.03307,-0.0145 0.0088,-0.01 0.01292,-0.0258 0.01292,-0.0486 v -0.31989 h 0.378788 v 1.10226 h -0.239778 c -0.02197,0 -0.038,0.005 -0.04754,0.0134 -0.0095,0.008 -0.01447,0.0191 -0.01447,0.0331 0,0.0132 0.0049,0.0242 0.01447,0.0331 0.0095,0.009 0.02556,0.0129 0.04754,0.0129 h 0.573091 c 0.02197,0 0.038,-0.004 0.04754,-0.0129 0.0095,-0.009 0.01395,-0.0199 0.01395,-0.0331 0,-0.0135 -0.0044,-0.0245 -0.01395,-0.0331 -0.0095,-0.009 -0.02557,-0.0134 -0.04754,-0.0134 h -0.239778 v -1.10226 h 0.379305 v 0.31989 c 0,0.0227 0.0037,0.039 0.01137,0.0486 0.0088,0.01 0.02014,0.0145 0.03411,0.0145 0.01431,0 0.02541,-0.005 0.03307,-0.0145 0.0088,-0.01 0.01344,-0.0258 0.01344,-0.0486 v -0.41238 z m -0.729154,0.10284 c -0.12691,0 -0.229188,0.0352 -0.306958,0.1049 -0.077,0.0697 -0.115756,0.15276 -0.115756,0.2496 0,0.0976 0.03382,0.17302 0.101286,0.22582 0.0675,0.0529 0.177922,0.0922 0.331246,0.11783 0.111552,0.0191 0.184962,0.0363 0.220142,0.0517 0.05068,0.022 0.08908,0.0518 0.114721,0.0899 0.02564,0.0374 0.03824,0.0803 0.03824,0.12867 0,0.0793 -0.03382,0.14826 -0.101286,0.20619 -0.06676,0.0579 -0.157971,0.0868 -0.273885,0.0868 -0.115879,0 -0.208506,-0.0277 -0.277502,-0.0827 -0.06849,-0.0558 -0.104087,-0.11755 -0.107487,-0.185 -7.67e-4,-0.0198 -0.0057,-0.0341 -0.01447,-0.0429 -0.0081,-0.009 -0.01884,-0.0129 -0.03204,-0.0129 -0.01397,0 -0.02533,0.005 -0.03411,0.0145 -0.0077,0.01 -0.01137,0.0253 -0.01137,0.0481 v 0.25529 c 0,0.022 0.0041,0.038 0.01292,0.0476 0.0088,0.01 0.01987,0.0145 0.03307,0.0145 0.01431,0 0.02541,-0.005 0.03307,-0.0145 0.0088,-0.01 0.01292,-0.0256 0.01292,-0.0476 v -0.0527 c 0.0961,0.1005 0.224839,0.15089 0.385506,0.15089 0.143102,0 0.256736,-0.037 0.341064,-0.1111 0.08433,-0.0748 0.126608,-0.16515 0.126608,-0.27079 0,-0.069 -0.01664,-0.12871 -0.04961,-0.17932 -0.03231,-0.0506 -0.08038,-0.0903 -0.144177,-0.11885 -0.04768,-0.0213 -0.134479,-0.042 -0.259933,-0.0625 -0.07486,-0.0125 -0.129667,-0.0247 -0.164847,-0.0357 -0.03527,-0.0117 -0.06672,-0.0266 -0.09457,-0.045 -0.02785,-0.0191 -0.05031,-0.0438 -0.06718,-0.0739 -0.01687,-0.0301 -0.02532,-0.0635 -0.02532,-0.10026 0,-0.0712 0.02978,-0.13241 0.08992,-0.18448 0.06015,-0.0528 0.141418,-0.0796 0.243396,-0.0796 0.09681,0 0.175158,0.0248 0.234611,0.0739 0.0604,0.0491 0.0922,0.10473 0.0956,0.16639 0.0011,0.0198 0.0053,0.0341 0.01292,0.0429 0.0088,0.009 0.01987,0.0129 0.03307,0.0129 0.01431,0 0.02541,-0.004 0.03307,-0.014 0.0088,-0.01 0.01292,-0.0255 0.01292,-0.0475 v -0.23565 c 0,-0.022 -0.0041,-0.0375 -0.01292,-0.047 -0.008,-0.01 -0.01911,-0.0145 -0.03307,-0.0145 -0.01397,0 -0.02533,0.005 -0.03411,0.0145 -0.0077,0.01 -0.01137,0.025 -0.01137,0.047 v 0.031 h -0.001 c -0.09317,-0.0814 -0.204188,-0.12247 -0.333313,-0.12247 z m -1.793173,0.15554 c -0.02198,0 -0.038,0.004 -0.04754,0.0129 -0.0095,0.008 -0.01447,0.0191 -0.01447,0.0331 0,0.0139 0.0049,0.0253 0.01447,0.0341 0.0095,0.008 0.02556,0.0119 0.04754,0.0119 h 0.05478 l 0.406177,0.61391 v 0.48835 h -0.239778 c -0.02274,0 -0.03904,0.005 -0.04858,0.0134 -0.0088,0.008 -0.01292,0.0191 -0.01292,0.0331 0,0.0132 0.0044,0.0243 0.01395,0.0331 0.0095,0.009 0.02557,0.0129 0.04754,0.0129 h 0.573091 c 0.02197,0 0.038,-0.004 0.04754,-0.0129 0.0095,-0.009 0.01395,-0.0199 0.01395,-0.0331 0,-0.0135 -0.0044,-0.0245 -0.01395,-0.0331 -0.0095,-0.009 -0.02557,-0.0134 -0.04754,-0.0134 h -0.239778 v -0.48835 l 0.399458,-0.61391 h 0.05478 c 0.02197,0 0.038,-0.004 0.04754,-0.0119 0.0095,-0.009 0.01447,-0.0202 0.01447,-0.0341 0,-0.0135 -0.0049,-0.0245 -0.01447,-0.0331 -0.0095,-0.009 -0.02557,-0.0129 -0.04754,-0.0129 h -0.252697 c -0.02275,0 -0.03904,0.004 -0.04858,0.0129 -0.0095,0.008 -0.01447,0.0191 -0.01447,0.0331 0,0.0139 0.0049,0.0253 0.01447,0.0341 0.0095,0.008 0.02584,0.0119 0.04858,0.0119 h 0.08992 l -0.337964,0.52038 -0.345199,-0.52038 h 0.09147 c 0.02197,0 0.03749,-0.004 0.04703,-0.0119 0.0095,-0.009 0.01447,-0.0202 0.01447,-0.0341 0,-0.0135 -0.0049,-0.0245 -0.01447,-0.0331 -0.0095,-0.009 -0.02505,-0.0129 -0.04703,-0.0129 z m -0.791166,0.0264 c -0.126918,0 -0.229188,0.0347 -0.306958,0.10439 -0.077,0.0697 -0.115238,0.15327 -0.115238,0.25011 0,0.0976 0.03382,0.17251 0.101286,0.22531 0.0675,0.0529 0.177404,0.0922 0.330729,0.11782 0.111551,0.0191 0.184961,0.0363 0.220141,0.0517 0.0506,0.022 0.089,0.0523 0.114722,0.0904 0.02564,0.0374 0.03824,0.0803 0.03824,0.12867 0,0.0793 -0.03331,0.14774 -0.100769,0.20567 -0.06676,0.0579 -0.158488,0.0868 -0.274402,0.0868 -0.115879,0 -0.20799,-0.0272 -0.276986,-0.0822 -0.06849,-0.0558 -0.104604,-0.11754 -0.108004,-0.185 -7.66e-4,-0.0198 -0.0057,-0.0341 -0.01447,-0.0429 -0.0081,-0.009 -0.01884,-0.0134 -0.03204,-0.0134 -0.01397,0 -0.02533,0.005 -0.03411,0.0145 -0.0077,0.01 -0.01137,0.0258 -0.01137,0.0486 v 0.25529 c 0,0.022 0.0047,0.0375 0.01344,0.047 0.0088,0.01 0.01935,0.0145 0.03256,0.0145 0.01431,0 0.02541,-0.005 0.03307,-0.0145 0.0088,-0.01 0.01344,-0.025 0.01344,-0.047 v -0.0527 c 0.09611,0.1005 0.224322,0.15037 0.384989,0.15037 0.143094,0 0.256736,-0.037 0.341065,-0.11111 0.08441,-0.0748 0.126607,-0.16514 0.126607,-0.27078 0,-0.069 -0.01656,-0.12871 -0.04961,-0.17932 -0.0323,-0.0506 -0.08038,-0.0903 -0.144177,-0.11886 -0.04769,-0.0213 -0.133972,-0.042 -0.259416,-0.0625 -0.07487,-0.0125 -0.130185,-0.0241 -0.165365,-0.0351 -0.03527,-0.0117 -0.06671,-0.0271 -0.09457,-0.0455 -0.02785,-0.0191 -0.05031,-0.0433 -0.06718,-0.0734 -0.01687,-0.0301 -0.02532,-0.0635 -0.02532,-0.10025 0,-0.0712 0.03029,-0.13294 0.09043,-0.18501 0.06016,-0.0528 0.141427,-0.0791 0.243396,-0.0791 0.09682,0 0.174641,0.0248 0.234095,0.0739 0.0604,0.0491 0.0922,0.10422 0.0956,0.16589 0.0011,0.0198 0.0058,0.0341 0.01344,0.0429 0.0088,0.009 0.01987,0.0134 0.03307,0.0134 0.01431,0 0.02489,-0.005 0.03256,-0.0145 0.0088,-0.01 0.01344,-0.0256 0.01344,-0.0476 v -0.23512 c 0,-0.022 -0.0047,-0.038 -0.01344,-0.0476 -0.008,-0.01 -0.01859,-0.014 -0.03256,-0.014 -0.01397,0 -0.02533,0.004 -0.03411,0.014 -0.0077,0.01 -0.01189,0.0255 -0.01189,0.0476 v 0.0305 h -5.17e-4 c -0.09318,-0.0814 -0.204713,-0.12196 -0.33383,-0.12196 z m 4.443657,1.97611 c -0.194414,0 -0.337211,0.0694 -0.428915,0.20877 -0.0917,0.13865 -0.137459,0.35366 -0.137459,0.64492 0,0.28905 0.04516,0.50346 0.135392,0.64285 0.09097,0.1394 0.234367,0.20878 0.430982,0.20878 0.193679,0 0.336692,-0.0685 0.428397,-0.20567 0.09244,-0.13793 0.138493,-0.35384 0.138493,-0.64803 0,-0.28538 -0.04545,-0.49838 -0.136426,-0.63923 -0.09024,-0.1416 -0.23385,-0.21239 -0.430464,-0.21239 z m 2.238623,0.0176 c -0.194414,0 -0.337728,0.0694 -0.429431,0.20877 -0.09171,0.13865 -0.13746,0.35366 -0.13746,0.64492 0,0.28905 0.04516,0.50346 0.135393,0.64285 0.09097,0.1394 0.234883,0.20878 0.431498,0.20878 0.19368,0 0.336175,-0.0685 0.427881,-0.20567 0.09244,-0.13793 0.139009,-0.35384 0.139009,-0.64803 0,-0.28538 -0.04545,-0.49838 -0.136426,-0.63923 -0.09024,-0.1416 -0.23385,-0.21239 -0.430464,-0.21239 z m -4.526339,0.0129 c -0.08143,0 -0.165913,0.0108 -0.253215,0.032 -0.08657,0.0212 -0.155652,0.0445 -0.207739,0.0703 v 0.231 h 0.01085 c 0.07409,-0.0484 0.150124,-0.0845 0.227893,-0.10801 0.07776,-0.0235 0.150277,-0.0351 0.217041,-0.0351 0.100506,0 0.178335,0.024 0.234095,0.0724 0.05649,0.0477 0.08475,0.11438 0.08475,0.19947 0,0.0932 -0.02595,0.1803 -0.07803,0.26097 -0.05209,0.08 -0.14853,0.18808 -0.289388,0.32453 -0.06676,0.0653 -0.139272,0.13088 -0.217041,0.19688 -0.07704,0.0661 -0.153966,0.13192 -0.230994,0.19792 v 0.22996 h 1.109493 v -0.18758 h -0.8816 c 0.07263,-0.0616 0.150972,-0.12861 0.234611,-0.20051 0.08363,-0.0727 0.164377,-0.14727 0.242879,-0.22427 0.05502,-0.0535 0.10189,-0.1027 0.140043,-0.14676 0.03888,-0.044 0.07267,-0.0889 0.101286,-0.13436 0.03081,-0.0484 0.05384,-0.0994 0.06925,-0.15296 0.01614,-0.0543 0.02429,-0.11234 0.02429,-0.17467 0,-0.13869 -0.04777,-0.24851 -0.143143,-0.32918 -0.09537,-0.0814 -0.227322,-0.12196 -0.395325,-0.12196 z m -2.208651,0.0202 0.596346,1.63814 h 0.290939 l 0.596346,-1.63814 h -0.222209 l -0.51418,1.44125 -0.513664,-1.44125 z m 4.496367,0.13074 c 0.06969,0 0.127029,0.0143 0.171049,0.0429 0.04475,0.0286 0.07974,0.0712 0.10542,0.12764 0.02641,0.0572 0.04391,0.12709 0.05271,0.20929 0.0095,0.0822 0.01447,0.1789 0.01447,0.29042 0,0.113 -0.0049,0.20976 -0.01447,0.29041 -0.0088,0.0799 -0.026,0.14983 -0.05168,0.20929 -0.02494,0.058 -0.05993,0.10112 -0.10542,0.12971 -0.04549,0.0286 -0.102604,0.0429 -0.171566,0.0429 -0.07336,0 -0.132496,-0.0149 -0.17725,-0.045 -0.04402,-0.03 -0.07811,-0.074 -0.102319,-0.13125 -0.02639,-0.0609 -0.04358,-0.12971 -0.05168,-0.20671 -0.0081,-0.077 -0.0124,-0.17287 -0.0124,-0.28732 0,-0.10417 0.0046,-0.20001 0.01344,-0.28732 0.0095,-0.0873 0.02674,-0.15812 0.05168,-0.21239 0.02641,-0.058 0.0617,-0.10111 0.106454,-0.12971 0.04548,-0.0286 0.102604,-0.0429 0.171566,-0.0429 z m 2.238623,0.0176 c 0.06969,0 0.126512,0.0143 0.170532,0.0429 0.04475,0.0286 0.07974,0.0712 0.10542,0.12764 0.02641,0.0572 0.04443,0.12709 0.05323,0.20929 0.0095,0.0822 0.01395,0.1789 0.01395,0.29042 0,0.113 -0.0044,0.20976 -0.01395,0.29042 -0.0088,0.0799 -0.026,0.14983 -0.05168,0.20929 -0.02494,0.058 -0.06045,0.10111 -0.105937,0.1297 -0.04548,0.0286 -0.102603,0.0429 -0.171565,0.0429 -0.07336,0 -0.132497,-0.0149 -0.17725,-0.045 -0.04402,-0.03 -0.07811,-0.074 -0.10232,-0.13125 -0.02639,-0.0609 -0.04358,-0.12971 -0.05168,-0.20671 -0.0081,-0.077 -0.0124,-0.17287 -0.0124,-0.28732 0,-0.10417 0.0046,-0.20001 0.01344,-0.28732 0.0095,-0.0873 0.02674,-0.15812 0.05168,-0.21239 0.02641,-0.058 0.06222,-0.10111 0.10697,-0.12971 0.04548,-0.0286 0.102604,-0.0429 0.171566,-0.0429 z m -3.511414,1.17616 v 0.31367 h 0.263033 v -0.31367 z m 2.252576,0 v 0.31367 h 0.263033 v -0.31367 z" /></g></g></svg>
